<?xml version="1.0" encoding="iso-8859-1"?>
<!-- Generator: Adobe Illustrator 19.0.0, SVG Export Plug-In . SVG Version: 6.00 Build 0)  -->
<svg version="1.1" id="Layer_1" xmlns="http://www.w3.org/2000/svg" xmlns:xlink="http://www.w3.org/1999/xlink" x="0px" y="0px"
	 viewBox="0 0 512 512" style="enable-background:new 0 0 512 512;" xml:space="preserve" 
	 height="100%"
	 >

		<path d="M391.032,478.242h-50.637V236.31c0-4.445-1.8-8.792-4.943-11.936c-3.143-3.144-7.491-4.943-11.936-4.943h-16.879v-33.758
			h16.879c4.445,0,8.792-1.8,11.936-4.943c3.144-3.143,4.943-7.491,4.943-11.936v-67.516c0-4.445-1.8-8.793-4.943-11.936
			c-3.143-3.143-7.491-4.943-11.936-4.943H188.484c-4.445,0-8.793,1.8-11.936,4.943c-3.143,3.143-4.943,7.491-4.943,11.936v67.516
			c0,4.445,1.8,8.792,4.943,11.936s7.491,4.943,11.936,4.943h16.879v33.758h-16.879c-4.445,0-8.793,1.8-11.936,4.943
			c-3.143,3.143-4.943,7.491-4.943,11.936v241.932h-50.637c-9.322,0-16.879,7.557-16.879,16.879S111.646,512,120.968,512h67.516
			h135.032h67.516c9.322,0,16.879-7.557,16.879-16.879S400.354,478.242,391.032,478.242z M205.363,118.157h101.274v33.758h-16.879
			h-67.516h-16.879V118.157z M272.879,185.673v33.758h-33.758v-33.758H272.879z M306.637,478.242H205.363V253.189h16.879h67.516
			h16.879V478.242z"/>

		<path d="M413.538,118.157h-22.505c-9.322,0-16.879,7.557-16.879,16.879s7.557,16.879,16.879,16.879h22.505
			c9.322,0,16.879-7.557,16.879-16.879C430.416,125.713,422.859,118.157,413.538,118.157z"/>

		<path d="M492.306,118.157h-22.505c-9.322,0-16.879,7.556-16.879,16.879c0,9.322,7.557,16.879,16.879,16.879h22.505
			c9.322,0,16.879-7.557,16.879-16.879S501.628,118.157,492.306,118.157z"/>

		<path d="M42.199,118.157H19.694c-9.322,0-16.879,7.557-16.879,16.879s7.557,16.879,16.879,16.879h22.505
			c9.322,0,16.879-7.557,16.879-16.879S51.521,118.157,42.199,118.157z"/>

		<path d="M120.968,118.157H98.463c-9.322,0-16.879,7.556-16.879,16.879c0,9.322,7.557,16.879,16.879,16.879h22.505
			c9.322,0,16.879-7.557,16.879-16.879S130.29,118.157,120.968,118.157z"/>

		<path d="M407.048,47.827c-4.661-8.073-14.984-10.84-23.057-6.178l-19.49,11.253c-8.073,4.661-10.839,14.984-6.178,23.057
			c4.661,8.073,14.984,10.839,23.057,6.178l19.49-11.253C408.943,66.223,411.709,55.9,407.048,47.827z"/>

		<path d="M475.265,8.442c-4.661-8.073-14.984-10.839-23.057-6.178l-19.491,11.253c-8.073,4.661-10.84,14.984-6.178,23.057
			c4.661,8.073,14.984,10.84,23.057,6.178l19.491-11.253C477.16,26.838,479.927,16.514,475.265,8.442z"/>

		<path d="M85.46,233.495c-4.66-8.073-14.983-10.839-23.057-6.178L42.913,238.57c-8.073,4.661-10.84,14.984-6.178,23.057
			c4.661,8.073,14.984,10.84,23.057,6.178l19.491-11.253C87.355,251.891,90.122,241.568,85.46,233.495z"/>

		<path d="M153.677,194.111c-4.661-8.073-14.984-10.84-23.057-6.178l-19.491,11.253c-8.073,4.661-10.84,14.984-6.178,23.057
			c4.661,8.073,14.984,10.84,23.057,6.178l19.491-11.253C155.572,212.507,158.339,202.184,153.677,194.111z"/>

		<path d="M400.871,199.186l-19.49-11.253c-8.073-4.661-18.396-1.895-23.057,6.178c-4.661,8.073-1.895,18.396,6.178,23.057
			l19.49,11.253c8.073,4.661,18.396,1.895,23.057-6.178C411.71,214.17,408.944,203.847,400.871,199.186z"/>

		<path d="M469.087,238.571l-19.491-11.253c-8.073-4.661-18.396-1.895-23.057,6.178s-1.895,18.396,6.178,23.057l19.491,11.253
			c8.073,4.661,18.396,1.895,23.057-6.178C479.926,253.555,477.16,243.232,469.087,238.571z"/>

		<path d="M79.284,13.518L59.793,2.265C51.72-2.396,41.397,0.37,36.736,8.443c-4.662,8.073-1.896,18.396,6.178,23.057l19.491,11.253
			c8.073,4.661,18.396,1.895,23.057-6.178C90.122,28.502,87.356,18.179,79.284,13.518z"/>

		<path d="M147.499,52.902L128.009,41.65c-8.073-4.661-18.396-1.895-23.057,6.178c-4.661,8.073-1.895,18.396,6.178,23.057
			l19.49,11.253c8.074,4.661,18.396,1.895,23.058-6.178C158.338,67.886,155.572,57.563,147.499,52.902z"/>

</svg>
