<svg viewBox="0 0 512 512"  xmlns="http://www.w3.org/2000/svg" height="100%">
<path d="m5 130.660156c4.789062 2.761719 10.898438 1.121094 13.660156-3.660156 2.769532-4.78125 1.128906-10.898438-3.660156-13.660156-4.78125-2.761719-10.890625-1.121094-13.660156 3.660156-2.757813 4.78125-1.121094 10.898438 3.660156 13.660156zm0 0"/><path d="m506.699219 130.660156c4.78125-2.761718 6.421875-8.878906 3.660156-13.660156-2.769531-4.78125-8.878906-6.421875-13.660156-3.660156-4.789063 2.761718-6.429688 8.878906-3.660157 13.660156 2.761719 4.78125 8.871094 6.421875 13.660157 3.660156zm0 0"/><path d="m470.058594 152.660156c4.78125-2.761718 6.421875-8.878906 3.660156-13.660156-2.769531-4.78125-8.878906-6.421875-13.660156-3.660156-4.789063 2.761718-6.429688 8.878906-3.667969 13.660156 2.769531 4.78125 8.878906 6.421875 13.667969 3.660156zm0 0"/><path d="m433.410156 174.660156c4.789063-2.761718 6.429688-8.878906 3.660156-13.660156-2.761718-4.78125-8.871093-6.421875-13.660156-3.660156-4.78125 2.761718-6.421875 8.878906-3.660156 13.660156 2.769531 4.78125 8.878906 6.421875 13.660156 3.660156zm0 0"/><path d="m404.511719 47.148438c2.757812-4.777344 1.117187-10.886719-3.660157-13.660157-4.78125-2.757812-10.902343-1.117187-13.660156 3.660157-2.761718 4.792968-1.121094 10.902343 3.660156 13.660156 4.777344 2.769531 10.898438 1.132812 13.660157-3.660156zm0 0"/><path d="m396.769531 196.660156c4.789063-2.761718 6.421875-8.878906 3.660157-13.660156-2.757813-4.78125-8.871094-6.421875-13.660157-3.660156-4.78125 2.761718-6.417969 8.878906-3.660156 13.660156 2.761719 4.78125 8.878906 6.421875 13.660156 3.660156zm0 0"/><path d="m380.851562 68.128906c-4.78125-2.757812-10.902343-1.117187-13.660156 3.660156-2.761718 4.789063-1.121094 10.902344 3.660156 13.671876 4.777344 2.757812 10.898438 1.117187 13.660157-3.671876 2.757812-4.777343 1.117187-10.890624-3.660157-13.660156zm0 0"/><path d="m360.851562 102.78125c-4.78125-2.769531-10.902343-1.132812-13.660156 3.660156-2.761718 4.777344-1.121094 10.886719 3.660156 13.660156 4.777344 2.757813 10.898438 1.117188 13.660157-3.660156 2.757812-4.792968 1.117187-10.902344-3.660157-13.660156zm0 0"/><path d="m363.78125 205c-2.761719-4.78125-8.878906-6.421875-13.660156-3.660156-4.78125 2.761718-6.421875 8.878906-3.660156 13.660156 2.761718 4.785156 8.878906 6.421875 13.660156 3.660156 4.78125-2.761718 6.421875-8.875 3.660156-13.660156zm0 0"/><path d="m340.851562 137.421875c-4.78125-2.761719-10.902343-1.132813-13.660156 3.65625-2.761718 4.78125-1.121094 10.902344 3.660156 13.660156 4.777344 2.761719 10.898438 1.121094 13.660157-3.660156 2.757812-4.789063 1.117187-10.898437-3.660157-13.65625zm0 0"/><path d="m320.84375 172.0625c-4.785156-2.761719-10.898438-1.121094-13.660156 3.660156-2.761719 4.78125-1.125 10.898438 3.660156 13.660156 4.78125 2.761719 10.898438 1.121094 13.660156-3.660156 2.761719-4.78125 1.121094-10.898437-3.660156-13.660156zm0 0"/><path d="m265.851562 10c0 5.523438-4.476562 10-10 10-5.523437 0-10-4.476562-10-10s4.476563-10 10-10c5.523438 0 10 4.476562 10 10zm0 0"/><path d="m265.851562 50c0 5.523438-4.476562 10-10 10-5.523437 0-10-4.476562-10-10s4.476563-10 10-10c5.523438 0 10 4.476562 10 10zm0 0"/><path d="m265.851562 90c0 5.523438-4.476562 10-10 10-5.523437 0-10-4.476562-10-10s4.476563-10 10-10c5.523438 0 10 4.476562 10 10zm0 0"/><path d="m265.851562 130c0 5.523438-4.476562 10-10 10-5.523437 0-10-4.476562-10-10s4.476563-10 10-10c5.523438 0 10 4.476562 10 10zm0 0"/><path d="m265.851562 170c0 5.523438-4.476562 10-10 10-5.523437 0-10-4.476562-10-10s4.476563-10 10-10c5.523438 0 10 4.476562 10 10zm0 0"/><path d="m265.851562 410c0 5.523438-4.476562 10-10 10-5.523437 0-10-4.476562-10-10s4.476563-10 10-10c5.523438 0 10 4.476562 10 10zm0 0"/><path d="m204.503906 175.71875c-2.761718-4.78125-8.875-6.421875-13.660156-3.660156-4.78125 2.761718-6.421875 8.878906-3.660156 13.660156 2.761718 4.78125 8.878906 6.421875 13.660156 3.660156 4.785156-2.761718 6.421875-8.878906 3.660156-13.660156zm0 0"/><path d="m180.851562 154.738281c4.777344-2.757812 6.417969-8.878906 3.660157-13.660156-2.761719-4.789063-8.882813-6.417969-13.660157-3.65625-4.78125 2.757813-6.421874 8.867187-3.660156 13.65625 2.757813 4.78125 8.878906 6.421875 13.660156 3.660156zm0 0"/><path d="m161.566406 201.339844c-4.785156-2.761719-10.902344-1.121094-13.660156 3.660156-2.761719 4.78125-1.125 10.898438 3.660156 13.660156 4.78125 2.761719 10.898438 1.121094 13.65625-3.660156 2.761719-4.78125 1.125-10.898438-3.65625-13.660156zm0 0"/><path d="m160.851562 120.101562c4.777344-2.773437 6.417969-8.882812 3.660157-13.660156-2.761719-4.792968-8.882813-6.429687-13.660157-3.660156-4.78125 2.757812-6.421874 8.867188-3.660156 13.660156 2.757813 4.777344 8.878906 6.417969 13.660156 3.660156zm0 0"/><path d="m140.851562 85.460938c4.777344-2.769532 6.417969-8.882813 3.660157-13.671876-2.761719-4.777343-8.882813-6.417968-13.660157-3.660156-4.78125 2.769532-6.421874 8.882813-3.660156 13.660156 2.757813 4.789063 8.878906 6.429688 13.660156 3.671876zm0 0"/><path d="m114.929688 196.660156c4.78125 2.761719 10.902343 1.121094 13.660156-3.660156 2.761718-4.78125 1.121094-10.898438-3.660156-13.660156-4.789063-2.761719-10.898438-1.121094-13.660157 3.660156-2.757812 4.78125-1.128906 10.898438 3.660157 13.660156zm0 0"/><path d="m120.851562 50.808594c4.777344-2.757813 6.417969-8.867188 3.660157-13.660156-2.761719-4.777344-8.882813-6.417969-13.660157-3.660157-4.78125 2.773438-6.421874 8.882813-3.660156 13.660157 2.757813 4.792968 8.878906 6.429687 13.660156 3.660156zm0 0"/><path d="m88.289062 157.339844c-4.789062-2.761719-10.898437-1.121094-13.660156 3.660156-2.769531 4.78125-1.128906 10.898438 3.660156 13.660156 4.78125 2.761719 10.890626 1.121094 13.660157-3.660156 2.761719-4.78125 1.121093-10.898438-3.660157-13.660156zm0 0"/><path d="m55.308594 149c2.761718-4.78125 1.121094-10.898438-3.667969-13.660156-4.78125-2.761719-10.890625-1.121094-13.660156 3.660156-2.761719 4.78125-1.121094 10.898438 3.660156 13.660156 4.789063 2.761719 10.898437 1.121094 13.667969-3.660156zm0 0"/><path d="m85.851562 502c0 5.523438 4.476563 10 10 10h320c5.519532 0 10-4.476562 10-10s-4.480468-10-10-10h-110v-113.703125c11.386719-4.019531 20-14.96875 20-28.296875 0-16.542969-13.460937-30-30-30h-10v-20h30c5.519532 0 10-4.476562 10-10v-10h50c5.519532 0 10-4.476562 10-10s-4.480468-10-10-10h-50.714843c-4.78125-33.609375-33.671875-60-69.285157-60-35.203124 0-64.40625 26.125-69.273437 60h-50.726563c-5.523437 0-10 4.476562-10 10s4.476563 10 10 10h50v10c0 5.523438 4.476563 10 10 10h30v20h-10c-16.578124 0-30 13.425781-30 30 0 13.035156 8.359376 24.152344 20 28.28125v113.71875h-110c-5.523437 0-10 4.476562-10 10zm120-232c0-27.570312 22.429688-50 50-50 27.589844 0 50 22.324219 50 50v10h-100zm60 30v20h-20v-20zm-50 40h80c5.511719 0 10 4.484375 10 10 0 5.519531-4.480468 10-10 10h-80c-5.515624 0-10-4.484375-10-10 0-5.519531 4.476563-10 10-10zm10 40h60v112h-20v-42c0-5.523438-4.480468-10-10-10-5.523437 0-10 4.476562-10 10v42h-20zm0 0"/></svg>